# AST/ASF file generated using VICON BodyLanguage
# -----------------------------------------------
:version 1.10
:name VICON
:units
  mass 1.0
  length 0.45
  angle deg
:documentation
   .ast/.asf automatically generated from VICON data using
   VICON BodyBuilder and BodyLanguage model FoxedUp or BRILLIANT.MOD
:root
   order TX TY TZ RX RY RZ
   axis XYZ
   position 0 0 0  
   orientation 0 0 0 
:bonedata
  begin
     id 1 
     name lhipjoint
     direction 0.630082 -0.636569 0.44472 
     length 2.82754 
     axis 0 0 0  XYZ
  end
  begin
     id 2 
     name lfemur
     direction 0.34202 -0.939693 0  
     length 7.26371  
     axis 0 0 20  XYZ
    dof rx ry rz
    limits (-160.0 20.0)
           (-70.0 70.0)
           (-60.0 70.0)
  end
  begin
     id 3 
     name ltibia
     direction 0.34202 -0.939693 0   
     length 7.88616   
     axis 0 0 20   XYZ
    dof rx
    limits (-10.0 170.0)
  end
  begin
     id 4 
     name lfoot
     direction 0.0603448 -0.165796 0.984312   
     length 1.77861   
     axis -90 7.62852e-016 20   XYZ
    dof rx rz
    limits (-45.0 90.0)
           (-70.0 20.0)
  end
  begin
     id 5 
     name ltoes
     direction 1.53577e-011 -4.21876e-011 1   
     length 0.902235   
     axis -90 7.62852e-016 20   XYZ
    dof rx
    limits (-90.0 20.0)
  end
  begin
     id 6 
     name rhipjoint
     direction -0.656778 -0.61817 0.431866   
     length 2.9117  
     axis 0 0 0  XYZ 
  end
  begin
     id 7 
     name rfemur
     direction -0.34202 -0.939693 0   
     length 6.81603   
     axis 0 0 -20   XYZ
    dof rx ry rz
    limits (-160.0 20.0)
           (-70.0 70.0)
           (-70.0 60.0)
  end
  begin
     id 8 
     name rtibia
     direction -0.34202 -0.939693 0   
     length 8.05997   
     axis 0 0 -20   XYZ
    dof rx
    limits (-10.0 170.0)
 end
 begin
     id 9 
     name rfoot
     direction -0.0862404 -0.236944 0.967688   
     length 1.84899  
     axis -90 -7.62852e-016 -20   XYZ
    dof rx rz
    limits (-45.0 90.0)
           (-20.0 70.0)
  end
  begin
     id 10 
     name rtoes
     direction -1.53561e-011 -4.21798e-011 1   
     length 0.931579   
     axis -90 -7.62852e-016 -20   XYZ
    dof rx
    limits (-90.0 20.0)
  end
  begin
     id 11 
     name lowerback
     direction -0.0110203 0.991769 -0.127564   
     length 2.05686   
     axis 0 0 0   XYZ
    dof rx ry rz
    limits (-20.0 45.0)
           (-30.0 30.0)
           (-30.0 30.0)
  end
  begin
     id 12 
     name upperback
     direction 0.0109719 0.99993 -0.00432479   
     length 2.06234   
     axis 0 0 0   XYZ
    dof rx ry rz
    limits (-20.0 45.0)
           (-30.0 30.0)
           (-30.0 30.0)
  end
  begin
     id 13 
     name thorax
     direction 0.0173308 0.998351 0.0547306   
     length 2.09856   
     axis 0 0 0   XYZ
    dof rx ry rz
    limits (-20.0 45.0)
           (-30.0 30.0)
           (-30.0 30.0)
  end
  begin
     id 14 
     name lowerneck
     direction -0.0311736 0.989033 0.144366   
     length 1.98151   
     axis 0 0 0   XYZ
    dof rx ry rz
    limits (-20.0 45.0)
           (-30.0 30.0)
           (-30.0 30.0)
  end
  begin
     id 15 
     name upperneck
     direction 0.0421057 0.975772 -0.214698   
     length 2.01457   
     axis 0 0 0   XYZ
    dof rx ry rz
    limits (-20.0 45.0)
           (-30.0 30.0)
           (-30.0 30.0)
  end
  begin
     id 16
     name head
     direction 0.0136911 0.995958 -0.0887718  
     length 2.03562  
     axis 0 0 0   XYZ
    dof rx ry rz
    limits (-20.0 45.0)
           (-30.0 30.0)
           (-30.0 30.0)
  end
  begin
     id 17 
     name lclavicle
     direction 0.915335 0.396201 0.0720134  
     length 4.16217  
     axis 0 0 0   XYZ
    dof ry rz
    limits (-20.0 10.0)
           (0.0 20.0)
  end
  begin
     id 18 
     name lhumerus
     direction 1 -4.48965e-011 6.383e-018   
     length 4.93042   
     axis -180 -30 -90   XYZ
    dof rx ry rz
    limits (-60.0 90.0)
           (-90.0 90.0)
           (-90.0 90.0)
  end
  begin
     id 19
     name lradius
     direction 1 -4.48972e-011 8.8689e-027   
     length 3.68177   
     axis -180 -30 -90   XYZ
    dof rx
    limits (-10.0 170.0)
  end
  begin
     id 20
     name lwrist
     direction 1 -4.48953e-011 1.17971e-026   
     length 1.84089   
     axis -7.69454e-015 90 90   XYZ
    dof ry
    limits (-180.0 0.0)
 end
  begin
     id 21 
     name lhand
     direction 1 -4.49027e-011 2.35802e-026   
     length 0.721479   
     axis -1.50533e-014 90 90   XYZ
    dof rx rz
    limits (-90.0 90.0)
           (-45.0 45.0)
  end
  begin
     id 22 
     name lfingers
     direction 1 -4.48915e-011 4.72027e-026   
     length 0.581675   
     axis -3.01059e-014 90 90   XYZ
    dof rx
    limits (0.0 90.0)
  end
  begin
     id 23
     name lthumb
     direction 0.707107 -6.34948e-011 0.707107   
     length 0.835172   
     axis -90 45 -5.12164e-014   XYZ
    dof rx rz
    limits (-45.0 45.0)
           (-45.0 45.0)
  end
  begin
     id 24 
     name rclavicle
     direction -0.882781 0.469197 0.0234974   
     length 3.95647  
     axis 0 0 0   XYZ 
    dof ry rz
    limits (-10.0 20.0)
           (-20.0 0.0)
  end
  begin
     id 25 
     name rhumerus
     direction -1 -4.48965e-011 -1.54906e-018  
     length 5.07905   
     axis -180 30 90   XYZ
    dof rx ry rz
    limits (-90.0 60.0)
           (-90.0 90.0)
           (-90.0 90.0)
  end
  begin
     id 26 
     name rradius
     direction -1 -4.48972e-011 5.47489e-027   
     length 3.54394   
     axis -180 30 90   XYZ
    dof rx
    limits (-10.0 170.0)
  end
  begin
     id 27 
     name rwrist
     direction -1 -4.48955e-011 1.17969e-026   
     length 1.77197   
     axis -7.69454e-015 -90 -90   XYZ
    dof ry
    limits (-180.0 0.0)
  end
  begin
     id 28
     name rhand
     direction -1 -4.48982e-011 2.35888e-026   
     length 0.681156   
     axis -1.50533e-014 -90 -90   XYZ
    dof rx rz
    limits (-90.0 90.0)
           (-45.0 45.0)
  end
  begin
     id 29
     name rfingers
     direction -1 -4.48955e-011 4.71877e-026   
     length 0.549165   
     axis -3.01059e-014 -90 -90   XYZ
    dof rx
    limits (0.0 90.0)
  end
  begin
     id 30
     name rthumb
     direction -0.707107 -6.3491e-011 0.707107   
     length 0.788495   
     axis -90 -45 5.12164e-014   XYZ
    dof rx rz
    limits (-45.0 45.0)
           (-45.0 45.0)
  end
:hierarchy
  begin
    root lhipjoint rhipjoint lowerback
    lhipjoint lfemur
    lfemur ltibia
    ltibia lfoot
    lfoot ltoes
    rhipjoint rfemur
    rfemur rtibia
    rtibia rfoot
    rfoot rtoes
    lowerback upperback
    upperback thorax
    thorax lowerneck lclavicle rclavicle
    lowerneck upperneck
    upperneck head
    lclavicle lhumerus
    lhumerus lradius
    lradius lwrist
    lwrist lhand lthumb
    lhand lfingers
    rclavicle rhumerus
    rhumerus rradius
    rradius rwrist
    rwrist rhand rthumb
    rhand rfingers
  end

#!OML:ASF H:\Bending\Project 1\Capture day 1\Session 1\Subject.ASF
:FULLY-SPECIFIED
:DEGREES
407
root -9.75802 18.0646 -16.4249 -149.813 86.3942 -155.429
lowerback 6.1438 0.164549 0.981473
upperback -2.40625 0.458908 2.25308
thorax -5.96782 0.247555 1.74396
lowerneck -23.1731 -4.20466 -5.59954
upperneck 33.4607 -3.79377 1.42853
head 15.945 -1.86056 0.877208
rclavicle 4.89507e-015 2.78299e-015
rhumerus -48.0416 -4.99012 -74.2548
rradius 40.725
rwrist 10.5355
rhand -18.2121 -20.3762
rfingers 7.12502
rthumb 8.0656 -50.2022
lclavicle 4.89507e-015 2.78299e-015
lhumerus -36.4607 0.380351 91.2493
lradius 28.1371
lwrist 16.4994
lhand -34.4434 10.1796
lfingers 7.12502
lthumb -7.60752 40.0228
rfemur 3.78605 -4.80778 16.2372
rtibia -1.90833e-014
rfoot -9.51139 -15.1564
rtoes 8.60653
lfemur -8.25938 -15.5735 -11.9736
ltibia 21.0508
lfoot -23.6046 12.3995
ltoes 2.08361
408
root -9.76831 18.0654 -16.4262 -149.295 86.3887 -154.897
lowerback 6.07243 0.182471 1.06666
upperback -2.39168 0.487038 2.23606
thorax -5.91143 0.257801 1.67495
lowerneck -23.1599 -4.18436 -5.51779
upperneck 33.4957 -3.76994 1.36121
head 15.9534 -1.84908 0.83975
rclavicle 4.87022e-015 1.31198e-014
rhumerus -47.9785 -4.67064 -74.7434
rradius 41.7641
rwrist 10.7146
rhand -18.1318 -20.3417
rfingers 7.12502
rthumb 8.14309 -50.1648
lclavicle 4.87022e-015 1.31198e-014
lhumerus -36.2706 0.39835 91.4432
lradius 28.4812
lwrist 16.9528
lhand -34.56 10.1964
lfingers 7.12502
lthumb -7.72007 40.0354
rfemur 3.75566 -4.79475 16.2726
rtibia -2.38542e-014
rfoot -9.43304 -15.1974
rtoes 8.1418
lfemur -8.25662 -15.6369 -11.9462
ltibia 21.0219
lfoot -23.5435 12.5569
ltoes 1.5302
409
root -9.77831 18.0667 -16.4263 -148.869 86.3922 -154.449
lowerback 6.0193 0.206451 1.13276
upperback -2.37704 0.521172 2.20922
thorax -5.86546 0.271476 1.60587
lowerneck -23.1686 -4.16286 -5.42029
upperneck 33.5589 -3.74765 1.29133
head 15.9802 -1.83608 0.798029
rclavicle 4.72114e-016 -7.95139e-015
rhumerus -47.9131 -4.45187 -75.195
rradius 42.6267
rwrist 10.8874
rhand -17.9154 -19.962
rfingers 7.12502
rthumb 8.35194 -49.7769
lclavicle 4.72114e-016 -7.95139e-015
lhumerus -36.1155 0.500202 91.5913
lradius 28.7923
lwrist 17.2386
lhand -34.7373 10.1605
lfingers 7.12502
lthumb -7.89127 39.9932
rfemur 3.74135 -4.77603 16.2958
rtibia 1.11319e-014
rfoot -9.41088 -15.1952
rtoes 8.09187
lfemur -8.21553 -15.6954 -11.93
ltibia 20.9359
lfoot -23.4524 12.7445
ltoes 0.908317
410
root -9.78873 18.0683 -16.4247 -149.505 86.4096 -155.039
lowerback 6.01431 0.23055 1.11524
upperback -2.36074 0.548195 2.1686
thorax -5.8456 0.284242 1.57029
lowerneck -23.2012 -4.15 -5.35216
upperneck 33.6469 -3.73318 1.24637
head 16.0269 -1.82604 0.77021
rclavicle -9.0447e-015 -4.77083e-015
rhumerus -47.8451 -4.26689 -75.6155
rradius 43.3099
rwrist 10.9967
rhand -17.694 -19.334
rfingers 7.12502
rthumb 8.56566 -49.1402
lclavicle -9.0447e-015 -4.77083e-015
lhumerus -36.0034 0.594539 91.7424
lradius 29.0823
lwrist 17.4241
lhand -34.9486 10.1093
lfingers 7.12502
lthumb -8.09519 39.9343
rfemur 3.76641 -4.77726 16.2438
rtibia -1.43125e-014
rfoot -9.45914 -15.1407
rtoes 8.584
lfemur -8.10999 -15.793 -11.9864
ltibia 20.7613
lfoot -23.3366 12.9489
ltoes 0.415369
411
root -9.80021 18.0697 -16.4215 -151.989 86.4379 -157.445
lowerback 6.07493 0.249336 0.969145
upperback -2.34039 0.556976 2.11095
thorax -5.85957 0.292073 1.59122
lowerneck -23.2495 -4.15424 -5.34692
upperneck 33.7389 -3.73437 1.24683
head 16.0833 -1.82393 0.769269
rclavicle -5.71506e-016 -9.54166e-015
rhumerus -47.7813 -4.06046 -75.9996
rradius 43.8372
rwrist 11.0211
rhand -17.5577 -18.6319
rfingers 7.12502
rthumb 8.69721 -48.4327
lclavicle -5.71506e-016 -9.54166e-015
lhumerus -35.9351 0.57752 91.9447
lradius 29.3648
lwrist 17.6043
lhand -35.1502 10.0788
lfingers 7.12502
lthumb -8.28973 39.8961
rfemur 3.8403 -4.82074 16.0722
rtibia 9.54166e-015
rfoot -9.54928 -15.0528
rtoes 9.44391
lfemur -7.93368 -15.9548 -12.1609
ltibia 20.4919
lfoot -23.1933 13.1543
ltoes 0.143636
412
root -9.81286 18.0705 -16.4171 -156.409 86.4556 -161.758
lowerback 6.19344 0.259125 0.699302
upperback -2.31438 0.542437 2.03816
thorax -5.90112 0.292421 1.66851
lowerneck -23.297 -4.17651 -5.4059
upperneck 33.8055 -3.75417 1.29244
head 16.1313 -1.83175 0.794816
rclavicle 6.48535e-015 -6.36111e-015
rhumerus -47.7292 -3.80789 -76.3364
rradius 44.2408
rwrist 10.9791
rhand -17.5171 -18.0285
rfingers 7.12502
rthumb 8.73639 -47.8277
lclavicle 6.48535e-015 -6.36111e-015
lhumerus -35.9057 0.377771 92.2231
lradius 29.6471
lwrist 17.8544
lhand -35.2991 10.0882
lfingers 7.12502
lthumb -8.43342 39.8998
rfemur 3.95214 -4.9134 15.7861
rtibia -7.95139e-015
rfoot -9.62398 -14.9723
rtoes 10.2718
lfemur -7.70795 -16.1777 -12.4522
ltibia 20.1572
lfoot -23.0226 13.349
ltoes 0.0468293
413
root -9.82597 18.0701 -16.4126 -161.85 86.4343 -167.082
lowerback 6.33532 0.258428 0.367096
upperback -2.28289 0.507456 1.96011
thorax -5.95019 0.284888 1.7778
lowerneck -23.3273 -4.2078 -5.49506
upperneck 33.8232 -3.78627 1.35909
head 16.1534 -1.84642 0.831993
rclavicle -4.14963e-015 -1.35174e-014
rhumerus -47.6909 -3.51595 -76.6189
rradius 44.5426
rwrist 10.9131
rhand -17.5092 -17.6224
rfingers 7.12502
rthumb 8.74398 -47.4213
lclavicle -4.14963e-015 -1.35174e-014
lhumerus -35.9074 -0.00929349 92.5665
lradius 29.9256
lwrist 18.1973
lhand -35.3697 10.1317
lfingers 7.12502
lthumb -8.50161 39.9406
rfemur 4.07404 -5.04123 15.4486
rtibia -2.38542e-014
rfoot -9.62479 -14.9439
rtoes 10.6245
lfemur -7.47704 -16.4382 -12.8018
ltibia 19.8194
lfoot -22.8435 13.5295
ltoes 0.00779398
